<svg id="Groupe_1364" data-name="Groupe 1364" xmlns="http://www.w3.org/2000/svg" xmlns:xlink="http://www.w3.org/1999/xlink" width="41.235" height="64.168" viewBox="0 0 41.235 64.168">
  <defs>
    <clipPath id="clip-path">
      <rect id="Rectangle_14" data-name="Rectangle 14" width="41.235" height="64.168" fill="#fff"/>
    </clipPath>
  </defs>
  <g id="Groupe_32" data-name="Groupe 32" clip-path="url(#clip-path)">
    <path id="Tracé_38" data-name="Tracé 38" d="M21.188,379.21A24,24,0,0,1,.872,368.6a20.261,20.261,0,0,0,6.755,11.115,22.505,22.505,0,0,0,10.56,4.348h6.006a22.632,22.632,0,0,0,13.7-7.2,20.1,20.1,0,0,0,4.1-9.1c-3.9,6.783-11.752,11.438-20.806,11.438" transform="translate(-0.758 -319.899)" fill="#fff"/>
    <path id="Tracé_39" data-name="Tracé 39" d="M20.43,283.542c-9.234,0-16.97-5.825-18.95-13.6A26.767,26.767,0,0,0,0,275.086C2.742,282.9,10.848,288.6,20.43,288.6c9.846,0,18.148-6.007,20.657-14.161a28,28,0,0,0-1.583-5.026c-1.756,8.04-9.634,14.129-19.074,14.129" transform="translate(0 -234.343)" fill="#fff"/>
    <path id="Tracé_40" data-name="Tracé 40" d="M42.705,224.6c-7.384,0-13.567-4.684-15.1-10.921-.71,1.144-1.381,2.3-2,3.458,1.646,7.138,8.684,12.519,17.1,12.519,8.6,0,15.747-5.628,17.182-13-.618-1.134-1.289-2.258-1.993-3.376-1.359,6.437-7.648,11.322-15.189,11.322" transform="translate(-22.275 -185.518)" fill="#fff"/>
    <path id="Tracé_41" data-name="Tracé 41" d="M69.93,173.064a11.458,11.458,0,0,1-10.895-7.082c-.718,1.024-1.43,2.051-2.127,3.083,1.517,5.2,6.772,9.056,13.022,9.056,6.392,0,11.748-4.031,13.124-9.413q-1.043-1.532-2.116-3.052c-1.407,4.277-5.805,7.408-11.008,7.408" transform="translate(-49.5 -144.092)" fill="#fff"/>
    <path id="Tracé_42" data-name="Tracé 42" d="M98.781,120.676a7.686,7.686,0,0,1-6.474-3.356q-1.083,1.635-2.23,3.269h0a9.915,9.915,0,0,0,17.541-.3c-.751-1.078-1.487-2.154-2.2-3.232a7.646,7.646,0,0,1-6.641,3.622" transform="translate(-78.351 -101.817)" fill="#fff"/>
    <path id="Tracé_43" data-name="Tracé 43" d="M124.213,11.983a5.879,5.879,0,0,0,8.725-.244A29.241,29.241,0,0,1,128.707.156L128.6,0c-.379,4.106-2.086,8.067-4.387,11.983" transform="translate(-108.044)" fill="#fff"/>
  </g>
</svg>
