<svg id="Groupe_1398" data-name="Groupe 1398" xmlns="http://www.w3.org/2000/svg" xmlns:xlink="http://www.w3.org/1999/xlink" width="34.686" height="34.688" viewBox="0 0 34.686 34.688">
  <defs>
    <clipPath id="clip-path">
      <rect id="Rectangle_10" data-name="Rectangle 10" width="34.686" height="34.688" fill="#e59a23"/>
    </clipPath>
  </defs>
  <g id="Groupe_14" data-name="Groupe 14" clip-path="url(#clip-path)">
    <path id="Tracé_33" data-name="Tracé 33" d="M3.32,118.862a3.322,3.322,0,1,1,2.349-.973,3.3,3.3,0,0,1-2.349.973m0-5.893a2.571,2.571,0,1,0,1.819.752,2.564,2.564,0,0,0-1.819-.752" transform="translate(0 -84.174)" fill="#e59a23"/>
    <path id="Tracé_34" data-name="Tracé 34" d="M30.111,27.991a3.322,3.322,0,0,1-2.349-5.671L43.549,6.533H36.532a3.271,3.271,0,0,1-3.267-3.256v-.01A3.27,3.27,0,0,1,36.532,0H51.513A3.271,3.271,0,0,1,54.78,3.267V18.248a3.285,3.285,0,0,1-3.233,3.237h-.034a3.271,3.271,0,0,1-3.266-3.233V11.232L32.46,27.018a3.3,3.3,0,0,1-2.349.973m3.9-24.733v.009a2.52,2.52,0,0,0,2.517,2.517h7.922a.375.375,0,0,1,.265.64L28.292,22.85a2.572,2.572,0,0,0,3.638,3.638L48.357,10.062a.375.375,0,0,1,.64.265v7.921a2.519,2.519,0,0,0,2.516,2.487h.026a2.531,2.531,0,0,0,2.491-2.491V3.267A2.52,2.52,0,0,0,51.514.75H36.532a2.52,2.52,0,0,0-2.517,2.508" transform="translate(-20.094)" fill="#e59a23"/>
  </g>
</svg>
