<svg id="Groupe_7" data-name="Groupe 7" xmlns="http://www.w3.org/2000/svg" xmlns:xlink="http://www.w3.org/1999/xlink" width="33.173" height="31.546" viewBox="0 0 33.173 31.546">
  <defs>
    <clipPath id="clip-path">
      <rect id="Rectangle_8" data-name="Rectangle 8" width="33.173" height="31.546" fill="#0eadf4"/>
    </clipPath>
  </defs>
  <g id="Groupe_8" data-name="Groupe 8" clip-path="url(#clip-path)">
    <path id="Tracé_32" data-name="Tracé 32" d="M30.943,21.976V5.018A5.026,5.026,0,0,0,25.925,0H5.018A5.026,5.026,0,0,0,0,5.018v17.33a5.026,5.026,0,0,0,5.018,5.018H22.766a5.261,5.261,0,1,0,8.177-5.389ZM5.018,1.812H25.925a3.162,3.162,0,0,1,3.159,3.159v.093l-13.009,9.06a.979.979,0,0,1-1.115,0L1.859,5.018A3.2,3.2,0,0,1,5.018,1.812ZM1.859,22.347V7.294l12.033,8.363a2.843,2.843,0,0,0,3.253,0l11.94-8.316v13.8A4.958,4.958,0,0,0,27.923,21a5.257,5.257,0,0,0-5.2,4.507H5.017a3.163,3.163,0,0,1-3.159-3.159Z" fill="#0eadf4"/>
  </g>
</svg>
